<?xml version="1.0" encoding="UTF-8"?>
<svg xmlns="http://www.w3.org/2000/svg" xmlns:xlink="http://www.w3.org/1999/xlink" width="12pt" height="12pt" viewBox="0 0 12 12" version="1.1">
<g id="surface1">
<path style=" stroke:none;fill-rule:nonzero;fill:#6E6E6E;fill-opacity:1;" d="M 2.117188 0.03125 C 1.976562 0.078125 1.867188 0.148438 1.75 0.285156 C 1.578125 0.472656 1.558594 0.5625 1.558594 1.136719 C 1.558594 1.679688 1.570312 1.730469 1.714844 1.9375 C 1.753906 1.992188 1.785156 2.042969 1.777344 2.046875 C 1.773438 2.054688 1.53125 2.171875 1.242188 2.308594 C 0.671875 2.578125 0.585938 2.640625 0.585938 2.773438 C 0.585938 2.898438 0.84375 3.25 1.121094 3.507812 L 1.253906 3.628906 L 1.199219 3.71875 C 1.125 3.839844 1.058594 3.996094 1.011719 4.136719 C 0.976562 4.242188 0.972656 4.597656 0.964844 7.441406 C 0.960938 10.273438 0.964844 10.648438 0.996094 10.8125 C 1.089844 11.273438 1.367188 11.640625 1.78125 11.847656 C 2.105469 12.007812 1.804688 12 6.136719 12 C 8.921875 12 10.085938 11.992188 10.175781 11.972656 C 10.585938 11.886719 10.992188 11.570312 11.175781 11.1875 C 11.339844 10.851562 11.332031 11.097656 11.332031 7.523438 C 11.332031 4.535156 11.328125 4.289062 11.292969 4.152344 C 11.234375 3.957031 11.125 3.738281 11.011719 3.605469 C 10.964844 3.542969 10.921875 3.488281 10.921875 3.484375 C 10.921875 3.476562 10.988281 3.394531 11.074219 3.300781 C 11.289062 3.0625 11.414062 2.867188 11.414062 2.773438 C 11.414062 2.644531 11.324219 2.574219 10.851562 2.351562 C 10.613281 2.242188 10.414062 2.148438 10.410156 2.140625 C 10.402344 2.136719 10.445312 2.085938 10.507812 2.027344 C 10.707031 1.824219 10.722656 1.777344 10.730469 1.152344 L 10.738281 0.609375 L 10.671875 0.46875 C 10.601562 0.308594 10.449219 0.15625 10.277344 0.0703125 L 10.160156 0.0117188 L 6.1875 0.0078125 C 2.964844 0.00390625 2.195312 0.0078125 2.117188 0.03125 Z M 10.078125 0.519531 C 10.246094 0.605469 10.265625 0.664062 10.265625 1.140625 C 10.265625 1.515625 10.261719 1.542969 10.210938 1.621094 C 10.183594 1.664062 10.121094 1.71875 10.078125 1.738281 C 10 1.777344 9.765625 1.78125 6.15625 1.78125 C 1.996094 1.78125 2.234375 1.789062 2.109375 1.65625 C 2.050781 1.589844 2.050781 1.582031 2.042969 1.152344 C 2.035156 0.648438 2.050781 0.597656 2.234375 0.515625 C 2.328125 0.472656 2.433594 0.46875 6.152344 0.46875 L 9.976562 0.46875 Z M 10.175781 2.570312 C 10.515625 2.730469 10.796875 2.867188 10.800781 2.871094 C 10.804688 2.875 10.746094 2.945312 10.671875 3.027344 C 10.398438 3.320312 9.988281 3.574219 9.613281 3.675781 C 9.183594 3.792969 8.765625 3.792969 8.335938 3.667969 C 8.222656 3.636719 8.105469 3.609375 8.078125 3.609375 C 8.046875 3.609375 7.925781 3.671875 7.8125 3.746094 C 7.230469 4.132812 6.652344 4.3125 6 4.3125 C 5.347656 4.3125 4.769531 4.132812 4.1875 3.746094 C 4.074219 3.671875 3.953125 3.609375 3.921875 3.609375 C 3.894531 3.609375 3.777344 3.636719 3.664062 3.667969 C 3.234375 3.792969 2.816406 3.792969 2.386719 3.675781 C 2.011719 3.574219 1.601562 3.320312 1.328125 3.023438 L 1.191406 2.875 L 1.597656 2.679688 C 1.820312 2.574219 2.101562 2.4375 2.214844 2.382812 L 2.425781 2.277344 L 5.992188 2.277344 L 9.554688 2.273438 Z M 10.648438 3.929688 C 10.695312 3.992188 10.757812 4.101562 10.789062 4.171875 L 10.839844 4.300781 L 10.847656 7.460938 C 10.851562 10.257812 10.847656 10.640625 10.816406 10.765625 C 10.75 11.023438 10.589844 11.238281 10.355469 11.378906 C 10.097656 11.539062 10.304688 11.53125 6.148438 11.53125 C 3.730469 11.53125 2.351562 11.523438 2.269531 11.507812 C 1.960938 11.449219 1.683594 11.230469 1.539062 10.929688 L 1.464844 10.769531 L 1.464844 4.273438 L 1.554688 4.09375 C 1.601562 3.996094 1.652344 3.914062 1.664062 3.914062 C 1.675781 3.914062 1.722656 3.933594 1.765625 3.953125 L 1.851562 3.992188 L 1.855469 7.320312 C 1.863281 10.648438 1.863281 10.652344 1.914062 10.757812 C 1.96875 10.882812 2.082031 10.996094 2.199219 11.054688 C 2.28125 11.09375 2.484375 11.097656 6.125 11.105469 L 9.964844 11.109375 L 10.082031 11.058594 C 10.214844 11 10.371094 10.835938 10.40625 10.714844 C 10.421875 10.660156 10.429688 9.441406 10.429688 7.238281 C 10.429688 4.03125 10.433594 3.84375 10.472656 3.824219 C 10.53125 3.789062 10.550781 3.800781 10.648438 3.929688 Z M 9.960938 4.558594 L 9.960938 5.039062 L 2.34375 5.039062 L 2.34375 4.167969 L 2.398438 4.179688 C 2.722656 4.261719 3.347656 4.257812 3.675781 4.171875 L 3.871094 4.121094 L 4.058594 4.246094 C 5.210938 4.984375 6.789062 4.984375 7.941406 4.246094 L 8.132812 4.121094 L 8.277344 4.15625 C 8.769531 4.277344 9.300781 4.273438 9.746094 4.140625 C 9.84375 4.109375 9.933594 4.082031 9.945312 4.082031 C 9.953125 4.082031 9.960938 4.292969 9.960938 4.558594 Z M 9.960938 8.035156 C 9.960938 10.160156 9.957031 10.542969 9.929688 10.585938 C 9.894531 10.628906 9.828125 10.628906 6.183594 10.632812 C 3.21875 10.636719 2.460938 10.632812 2.414062 10.609375 L 2.355469 10.578125 L 2.347656 8.054688 L 2.34375 5.53125 L 9.960938 5.53125 Z M 9.960938 8.035156 "/>
<path style=" stroke:none;fill-rule:nonzero;fill:#6E6E6E;fill-opacity:1;" d="M 9.066406 6.582031 C 8.972656 6.675781 8.972656 6.832031 9.0625 6.921875 C 9.191406 7.050781 9.425781 6.980469 9.460938 6.804688 C 9.503906 6.570312 9.234375 6.417969 9.066406 6.582031 Z M 9.066406 6.582031 "/>
<path style=" stroke:none;fill-rule:nonzero;fill:#6E6E6E;fill-opacity:1;" d="M 6.722656 6.574219 C 6.636719 6.621094 6.597656 6.746094 6.632812 6.851562 C 6.664062 6.953125 6.746094 7.007812 6.863281 7.007812 C 7.074219 7.007812 7.164062 6.75 7.007812 6.601562 C 6.929688 6.53125 6.824219 6.519531 6.722656 6.574219 Z M 6.722656 6.574219 "/>
<path style=" stroke:none;fill-rule:nonzero;fill:#6E6E6E;fill-opacity:1;" d="M 4.484375 6.769531 C 4.171875 6.882812 4.015625 7.125 4.035156 7.464844 C 4.046875 7.589844 4.0625 7.660156 4.109375 7.738281 C 4.332031 8.121094 4.824219 8.203125 5.152344 7.910156 C 5.433594 7.65625 5.453125 7.191406 5.183594 6.929688 C 5.003906 6.753906 4.710938 6.6875 4.484375 6.769531 Z M 4.808594 7.25 C 4.90625 7.328125 4.921875 7.445312 4.839844 7.53125 C 4.75 7.632812 4.59375 7.613281 4.53125 7.496094 C 4.445312 7.328125 4.660156 7.136719 4.808594 7.25 Z M 4.808594 7.25 "/>
<path style=" stroke:none;fill-rule:nonzero;fill:#6E6E6E;fill-opacity:1;" d="M 7.320312 8.128906 C 6.847656 8.296875 6.628906 8.832031 6.847656 9.273438 C 7.109375 9.800781 7.84375 9.878906 8.222656 9.414062 C 8.253906 9.378906 8.304688 9.285156 8.339844 9.203125 C 8.386719 9.082031 8.394531 9.035156 8.386719 8.863281 C 8.375 8.621094 8.304688 8.46875 8.148438 8.316406 C 7.941406 8.113281 7.589844 8.03125 7.320312 8.128906 Z M 7.808594 8.664062 C 8.03125 8.875 7.882812 9.234375 7.578125 9.234375 C 7.34375 9.234375 7.171875 8.972656 7.273438 8.769531 C 7.386719 8.558594 7.644531 8.503906 7.808594 8.664062 Z M 7.808594 8.664062 "/>
<path style=" stroke:none;fill-rule:nonzero;fill:#6E6E6E;fill-opacity:1;" d="M 3.527344 9.261719 C 3.386719 9.339844 3.351562 9.53125 3.460938 9.640625 C 3.609375 9.789062 3.867188 9.683594 3.867188 9.472656 C 3.863281 9.296875 3.675781 9.179688 3.527344 9.261719 Z M 3.527344 9.261719 "/>
<path style=" stroke:none;fill-rule:nonzero;fill:#6E6E6E;fill-opacity:1;" d="M 8.644531 9.816406 C 8.496094 9.96875 8.597656 10.21875 8.8125 10.21875 C 8.949219 10.21875 9.046875 10.121094 9.046875 9.984375 C 9.046875 9.769531 8.796875 9.667969 8.644531 9.816406 Z M 8.644531 9.816406 "/>
</g>
</svg>
