<?xml version="1.0" encoding="UTF-8"?>
<svg xmlns="http://www.w3.org/2000/svg" xmlns:xlink="http://www.w3.org/1999/xlink" width="9pt" height="9pt" viewBox="0 0 9 9" version="1.1">
<g id="surface1">
<path style=" stroke:none;fill-rule:nonzero;fill:#6E6E6E;fill-opacity:1;" d="M 1.585938 0.0234375 C 1.480469 0.0585938 1.402344 0.113281 1.3125 0.210938 C 1.183594 0.355469 1.167969 0.421875 1.167969 0.851562 C 1.167969 1.257812 1.179688 1.300781 1.285156 1.453125 C 1.316406 1.492188 1.335938 1.53125 1.335938 1.535156 C 1.332031 1.539062 1.148438 1.628906 0.929688 1.730469 C 0.503906 1.933594 0.4375 1.980469 0.4375 2.082031 C 0.4375 2.175781 0.632812 2.4375 0.84375 2.628906 L 0.941406 2.722656 L 0.898438 2.789062 C 0.84375 2.882812 0.792969 2.996094 0.757812 3.101562 C 0.734375 3.179688 0.730469 3.445312 0.722656 5.582031 C 0.71875 7.703125 0.722656 7.988281 0.746094 8.109375 C 0.816406 8.453125 1.027344 8.730469 1.335938 8.886719 C 1.578125 9.007812 1.351562 9 4.601562 9 C 6.691406 9 7.566406 8.996094 7.632812 8.980469 C 7.941406 8.914062 8.242188 8.675781 8.382812 8.390625 C 8.507812 8.140625 8.5 8.324219 8.5 5.640625 C 8.5 3.402344 8.496094 3.21875 8.46875 3.113281 C 8.425781 2.96875 8.34375 2.804688 8.261719 2.703125 C 8.222656 2.65625 8.191406 2.617188 8.191406 2.613281 C 8.191406 2.605469 8.242188 2.546875 8.304688 2.476562 C 8.46875 2.296875 8.5625 2.152344 8.5625 2.082031 C 8.5625 1.984375 8.492188 1.933594 8.140625 1.765625 C 7.960938 1.679688 7.808594 1.609375 7.804688 1.605469 C 7.804688 1.601562 7.835938 1.5625 7.878906 1.519531 C 8.03125 1.371094 8.042969 1.335938 8.046875 0.863281 L 8.050781 0.457031 L 8.003906 0.351562 C 7.949219 0.230469 7.839844 0.117188 7.707031 0.0546875 L 7.621094 0.0078125 L 4.640625 0.00390625 C 2.222656 0.00390625 1.648438 0.0078125 1.585938 0.0234375 Z M 7.558594 0.390625 C 7.683594 0.457031 7.699219 0.5 7.699219 0.855469 C 7.699219 1.136719 7.699219 1.160156 7.660156 1.214844 C 7.636719 1.25 7.59375 1.289062 7.558594 1.304688 C 7.5 1.335938 7.324219 1.335938 4.617188 1.335938 C 1.496094 1.335938 1.675781 1.339844 1.582031 1.242188 C 1.539062 1.195312 1.539062 1.1875 1.53125 0.863281 C 1.527344 0.484375 1.539062 0.449219 1.675781 0.386719 C 1.746094 0.351562 1.828125 0.351562 4.613281 0.351562 L 7.480469 0.351562 Z M 7.628906 1.925781 C 7.886719 2.046875 8.097656 2.148438 8.101562 2.152344 C 8.101562 2.15625 8.058594 2.207031 8.003906 2.269531 C 7.800781 2.488281 7.488281 2.679688 7.207031 2.757812 C 6.890625 2.847656 6.574219 2.84375 6.25 2.75 C 6.167969 2.726562 6.082031 2.707031 6.058594 2.707031 C 6.035156 2.707031 5.945312 2.753906 5.859375 2.8125 C 5.421875 3.097656 4.992188 3.234375 4.5 3.234375 C 4.007812 3.234375 3.578125 3.097656 3.140625 2.8125 C 3.054688 2.753906 2.964844 2.707031 2.941406 2.707031 C 2.917969 2.707031 2.832031 2.726562 2.75 2.75 C 2.425781 2.84375 2.109375 2.847656 1.792969 2.757812 C 1.511719 2.679688 1.199219 2.488281 0.996094 2.265625 L 0.894531 2.15625 L 1.195312 2.007812 C 1.367188 1.929688 1.574219 1.828125 1.660156 1.785156 L 1.820312 1.707031 L 4.492188 1.707031 L 7.167969 1.703125 Z M 7.984375 2.945312 C 8.019531 2.992188 8.070312 3.078125 8.089844 3.128906 L 8.128906 3.226562 L 8.136719 5.597656 C 8.140625 7.695312 8.136719 7.980469 8.113281 8.074219 C 8.0625 8.269531 7.945312 8.429688 7.769531 8.535156 C 7.574219 8.652344 7.726562 8.648438 4.613281 8.648438 C 2.796875 8.648438 1.765625 8.640625 1.703125 8.632812 C 1.472656 8.585938 1.261719 8.421875 1.15625 8.195312 L 1.097656 8.078125 L 1.097656 3.207031 L 1.164062 3.070312 C 1.203125 2.996094 1.238281 2.9375 1.25 2.9375 C 1.257812 2.9375 1.292969 2.949219 1.324219 2.964844 L 1.390625 2.996094 L 1.390625 5.492188 C 1.398438 7.984375 1.398438 7.988281 1.433594 8.070312 C 1.476562 8.160156 1.5625 8.246094 1.652344 8.292969 C 1.710938 8.320312 1.863281 8.324219 4.59375 8.328125 L 7.472656 8.332031 L 7.558594 8.296875 C 7.664062 8.25 7.777344 8.128906 7.804688 8.035156 C 7.816406 7.996094 7.820312 7.082031 7.820312 5.429688 C 7.820312 3.023438 7.824219 2.882812 7.855469 2.867188 C 7.898438 2.839844 7.910156 2.847656 7.984375 2.945312 Z M 7.46875 3.417969 L 7.46875 3.78125 L 1.757812 3.78125 L 1.757812 3.125 L 1.796875 3.132812 C 2.042969 3.195312 2.511719 3.195312 2.757812 3.128906 L 2.902344 3.089844 L 3.042969 3.183594 C 3.90625 3.738281 5.09375 3.738281 5.957031 3.183594 L 6.101562 3.089844 L 6.207031 3.117188 C 6.578125 3.207031 6.976562 3.203125 7.308594 3.105469 C 7.382812 3.082031 7.449219 3.0625 7.457031 3.058594 C 7.464844 3.058594 7.46875 3.21875 7.46875 3.417969 Z M 7.46875 6.027344 C 7.46875 7.621094 7.46875 7.910156 7.445312 7.9375 C 7.421875 7.972656 7.371094 7.972656 4.636719 7.976562 C 2.414062 7.980469 1.84375 7.976562 1.8125 7.957031 L 1.765625 7.933594 L 1.761719 6.042969 L 1.757812 4.148438 L 7.46875 4.148438 Z M 7.46875 6.027344 "/>
<path style=" stroke:none;fill-rule:nonzero;fill:#6E6E6E;fill-opacity:1;" d="M 6.800781 4.9375 C 6.730469 5.007812 6.730469 5.125 6.796875 5.191406 C 6.890625 5.289062 7.070312 5.234375 7.09375 5.105469 C 7.128906 4.929688 6.925781 4.816406 6.800781 4.9375 Z M 6.800781 4.9375 "/>
<path style=" stroke:none;fill-rule:nonzero;fill:#6E6E6E;fill-opacity:1;" d="M 5.042969 4.929688 C 4.976562 4.964844 4.949219 5.0625 4.976562 5.140625 C 5 5.214844 5.058594 5.257812 5.148438 5.257812 C 5.304688 5.257812 5.375 5.0625 5.257812 4.953125 C 5.195312 4.898438 5.117188 4.890625 5.042969 4.929688 Z M 5.042969 4.929688 "/>
<path style=" stroke:none;fill-rule:nonzero;fill:#6E6E6E;fill-opacity:1;" d="M 3.363281 5.078125 C 3.128906 5.160156 3.011719 5.34375 3.027344 5.597656 C 3.035156 5.695312 3.046875 5.746094 3.082031 5.800781 C 3.25 6.089844 3.621094 6.152344 3.863281 5.933594 C 4.078125 5.742188 4.089844 5.394531 3.886719 5.199219 C 3.753906 5.066406 3.53125 5.015625 3.363281 5.078125 Z M 3.605469 5.4375 C 3.679688 5.496094 3.691406 5.582031 3.628906 5.648438 C 3.5625 5.726562 3.445312 5.710938 3.398438 5.621094 C 3.335938 5.496094 3.496094 5.351562 3.605469 5.4375 Z M 3.605469 5.4375 "/>
<path style=" stroke:none;fill-rule:nonzero;fill:#6E6E6E;fill-opacity:1;" d="M 5.488281 6.097656 C 5.136719 6.222656 4.972656 6.625 5.136719 6.953125 C 5.332031 7.351562 5.882812 7.410156 6.167969 7.0625 C 6.191406 7.03125 6.230469 6.960938 6.253906 6.902344 C 6.292969 6.8125 6.296875 6.777344 6.289062 6.644531 C 6.28125 6.46875 6.230469 6.351562 6.113281 6.238281 C 5.957031 6.082031 5.691406 6.023438 5.488281 6.097656 Z M 5.855469 6.496094 C 6.023438 6.65625 5.914062 6.925781 5.683594 6.925781 C 5.507812 6.925781 5.378906 6.730469 5.457031 6.578125 C 5.539062 6.417969 5.730469 6.378906 5.855469 6.496094 Z M 5.855469 6.496094 "/>
<path style=" stroke:none;fill-rule:nonzero;fill:#6E6E6E;fill-opacity:1;" d="M 2.644531 6.945312 C 2.539062 7.003906 2.515625 7.148438 2.59375 7.230469 C 2.707031 7.34375 2.898438 7.261719 2.898438 7.105469 C 2.898438 6.972656 2.757812 6.886719 2.644531 6.945312 Z M 2.644531 6.945312 "/>
<path style=" stroke:none;fill-rule:nonzero;fill:#6E6E6E;fill-opacity:1;" d="M 6.484375 7.363281 C 6.371094 7.476562 6.449219 7.664062 6.609375 7.664062 C 6.710938 7.664062 6.785156 7.589844 6.785156 7.488281 C 6.785156 7.328125 6.597656 7.25 6.484375 7.363281 Z M 6.484375 7.363281 "/>
</g>
</svg>
