<svg xmlns="http://www.w3.org/2000/svg" width="16" height="16" viewBox="0 0 16 16">
    <g fill="none" fill-rule="evenodd">
        <polygon fill="#40B6E0" fill-opacity=".7" points="1 16 16 16 16 9 1 9"/>
        <polygon fill="#9AA7B0" fill-opacity=".8" points="9.546 3.446 4.5 7.798 3 6.504 3 8 13 8 13 1 6.615 1"/>
        <polygon fill="#F26522" points="4 6 1 3.459 4 1"/>
        <polygon fill="#62B543" points="5 6 8 3.459 5 1"/>
        <path fill="#231F20" fill-opacity=".7" d="M0,2.501 C0,1 0.931,2.02832126e-16 2.256,0 C3.20239258,0 3.55,0.311 3.969,0.753 L3.42669678,1.42712402 C3.07669678,1.06812402 2.75,1 2.25,1 C1.418,1 1,1.73791504 1,2.487 C1,3.23608496 1.412,4 2.25,4 C2.787,4 3.05169678,3.89340869 3.42669678,3.50640869 L4,4.144 C3.544,4.669 3.19732666,5 2.225,5 C0.949,5 7.35277938e-17,4.002 0,2.501 Z" transform="translate(5.5 10)"/>
        <path fill="#231F20" fill-opacity=".7" d="M3.196,6.086 C2.098,5.894 1.792,5.51 1.792,4.898 C1.792,4.808 1.81,4.586 1.81,4.484 C1.81,4.016 1.618,3.866 1.15,3.866 L0.994,3.866 L0.994,3.17 L1.15,3.17 C1.618,3.17 1.81,3.02 1.81,2.552 C1.81,2.45 1.792,2.228 1.792,2.138 C1.792,1.526 2.098,1.142 3.196,0.95 L3.358,1.556 C2.722,1.736 2.626,1.904 2.626,2.27 C2.626,2.39 2.644,2.588 2.644,2.714 C2.644,3.152 2.422,3.386 2.02,3.518 C2.422,3.65 2.644,3.884 2.644,4.322 C2.644,4.448 2.626,4.646 2.626,4.766 C2.626,5.132 2.722,5.3 3.358,5.48 L3.196,6.086 Z" transform="translate(1 9)"/>
        <path fill="#231F20" fill-opacity=".7" d="M3.196,6.086 C2.098,5.894 1.792,5.51 1.792,4.898 C1.792,4.808 1.81,4.586 1.81,4.484 C1.81,4.016 1.618,3.866 1.15,3.866 L0.994,3.866 L0.994,3.17 L1.15,3.17 C1.618,3.17 1.81,3.02 1.81,2.552 C1.81,2.45 1.792,2.228 1.792,2.138 C1.792,1.526 2.098,1.142 3.196,0.95 L3.358,1.556 C2.722,1.736 2.626,1.904 2.626,2.27 C2.626,2.39 2.644,2.588 2.644,2.714 C2.644,3.152 2.422,3.386 2.02,3.518 C2.422,3.65 2.644,3.884 2.644,4.322 C2.644,4.448 2.626,4.646 2.626,4.766 C2.626,5.132 2.722,5.3 3.358,5.48 L3.196,6.086 Z" transform="matrix(-1 0 0 1 14.352 9)"/>
    </g>
</svg>
